<svg width="40" height="50" viewBox="0 0 40 50" fill="none" xmlns="http://www.w3.org/2000/svg">
<path d="M20.16 44.48C16 44.48 12.4 43.5733 9.36002 41.76C6.37335 39.9467 4.05336 37.36 2.40002 34C0.800024 30.64 0 26.72 0 22.24C0 17.76 0.800024 13.8667 2.40002 10.56C4.05336 7.20001 6.37335 4.61334 9.36002 2.8C12.3467 0.933335 15.8667 0 19.92 0C23.76 0 27.1467 0.906669 30.08 2.72C33.0134 4.48 35.28 7.04 36.88 10.4C38.5333 13.76 39.36 17.8133 39.36 22.56V24.72H8.80002C9.01335 28.88 10.1067 32 12.08 34.08C14.1067 36.16 16.8267 37.2 20.24 37.2C22.7467 37.2 24.8267 36.6133 26.48 35.44C28.1333 34.2667 29.28 32.6933 29.92 30.72L38.72 31.28C37.6 35.2267 35.3867 38.4267 32.08 40.88C28.8267 43.28 24.8533 44.48 20.16 44.48ZM8.80002 18.32H30.4C30.1334 14.5333 29.04 11.7333 27.12 9.92001C25.2534 8.10667 22.8533 7.2 19.92 7.2C16.88 7.2 14.3734 8.16 12.4 10.08C10.48 11.9467 9.28002 14.6933 8.80002 18.32Z" fill="#100407"/>
<path d="M5.66737 32.8562C5.41581 32.2693 4.73608 31.9974 4.14913 32.2489C3.56219 32.5005 3.29029 33.1802 3.54184 33.7671L5.66737 32.8562ZM15.4602 43.699C15.8085 43.1638 15.6569 42.4476 15.1216 42.0993C14.5864 41.7511 13.8701 41.9026 13.5219 42.4379L15.4602 43.699ZM11.3438 45.7853C10.9955 46.3204 11.1471 47.0367 11.6823 47.3849C12.2176 47.7332 12.9338 47.5816 13.2821 47.0464L11.3438 45.7853ZM36.5008 33.7671C36.7522 33.1802 36.4804 32.5005 35.8933 32.2489C35.3064 31.9974 34.6267 32.2693 34.3751 32.8562L36.5008 33.7671ZM32.3079 42.8071C32.7594 43.2587 33.4914 43.2587 33.943 42.8071C34.3945 42.3555 34.3945 41.6234 33.943 41.1719L32.3079 42.8071ZM18.865 47.9575C18.865 48.5961 19.3827 49.1138 20.0213 49.1138C20.6598 49.1138 21.1775 48.5961 21.1775 47.9575H18.865ZM26.7605 47.0464C27.1088 47.5816 27.825 47.7332 28.3601 47.3849C28.8954 47.0367 29.047 46.3204 28.6987 45.7853L26.7605 47.0464ZM10.0472 40.4946C10.4987 40.043 10.4987 39.3109 10.0472 38.8594C9.59566 38.4078 8.86355 38.4078 8.41201 38.8594L10.0472 40.4946ZM6.09951 41.1719C5.64797 41.6234 5.64797 42.3555 6.09951 42.8071C6.55105 43.2587 7.28316 43.2587 7.7347 42.8071L6.09951 41.1719ZM20.0213 42.9471C15.0511 42.9471 11.4825 40.4721 9.11336 37.9207C7.92913 36.6454 7.06086 35.3665 6.48943 34.4065C6.20438 33.9276 5.99499 33.5311 5.8586 33.2583C5.79044 33.122 5.74064 33.0168 5.70885 32.948C5.69298 32.9136 5.6816 32.8883 5.67469 32.8728C5.67124 32.8651 5.66859 32.859 5.66737 32.8562C5.66737 32.8562 5.66737 32.8562 4.6046 33.3117C3.54184 33.7671 3.54184 33.7671 3.54184 33.7671L3.54281 33.7694L3.54422 33.7726C3.54528 33.7751 3.54665 33.7783 3.5483 33.7821C3.55162 33.7896 3.55609 33.7998 3.56171 33.8125C3.57297 33.8378 3.58888 33.8731 3.6095 33.9177C3.65073 34.007 3.71084 34.1337 3.79023 34.2925C3.94892 34.6098 4.18518 35.0565 4.50233 35.5893C5.13532 36.6527 6.09779 38.0717 7.41876 39.4942C10.0601 42.3387 14.1998 45.2596 20.0213 45.2596V42.9471ZM25.128 41.9925C23.632 42.5814 21.9356 42.9471 20.0213 42.9471V45.2596C22.2385 45.2596 24.2217 44.8344 25.975 44.1443L25.128 41.9925ZM13.5219 42.4379L11.3438 45.7853L13.2821 47.0464L15.4602 43.699L13.5219 42.4379ZM35.4379 33.3117C34.3751 32.8562 34.3751 32.8562 34.3751 32.8562L34.3759 32.8547C34.3759 32.8547 34.3753 32.8561 34.3743 32.8581C34.3726 32.8619 34.3696 32.8688 34.3651 32.8788C34.3562 32.8989 34.3417 32.931 34.3215 32.9744C34.2809 33.0613 34.2179 33.1929 34.1315 33.362C33.9589 33.7006 33.6943 34.1878 33.3342 34.7658C32.6119 35.925 31.5164 37.431 30.0216 38.8339L31.6043 40.52C33.2832 38.9441 34.5001 37.2674 35.2969 35.9887C35.6963 35.3477 35.9929 34.8022 36.1917 34.4127C36.2909 34.2178 36.366 34.0616 36.4174 33.9516C36.443 33.8966 36.4627 33.8531 36.4766 33.822C36.4835 33.8065 36.489 33.7941 36.4931 33.7849C36.4951 33.7803 36.4966 33.7765 36.498 33.7736L36.4995 33.7697L36.5008 33.7671C36.5008 33.7671 36.5008 33.7671 35.4379 33.3117ZM30.0216 38.8339C28.6973 40.0768 27.0727 41.2271 25.128 41.9925L25.975 44.1443C28.2468 43.2502 30.1139 41.9188 31.6043 40.52L30.0216 38.8339ZM29.9954 40.4946L32.3079 42.8071L33.943 41.1719L31.6305 38.8594L29.9954 40.4946ZM18.865 44.1033V47.9575H21.1775V44.1033H18.865ZM24.5824 43.699L26.7605 47.0464L28.6987 45.7853L26.5206 42.4379L24.5824 43.699ZM8.41201 38.8594L6.09951 41.1719L7.7347 42.8071L10.0472 40.4946L8.41201 38.8594Z" fill="#100407"/>
</svg>
