<svg width="72" height="72" viewBox="0 0 72 72" fill="none" xmlns="http://www.w3.org/2000/svg">
<rect x="0.4" y="0.4" width="71.2" height="71.2" rx="35.6" fill="url(#paint0_linear_472_6741)"/>
<rect x="0.4" y="0.4" width="71.2" height="71.2" rx="35.6" stroke="url(#paint1_linear_472_6741)" stroke-width="0.8"/>
<path d="M50.2383 49.2978C51.3627 49.3994 52.4914 49.1552 53.4732 48.5979C53.8036 48.3174 54.0607 47.9607 54.2222 47.5585C54.3837 47.1564 54.4448 46.721 54.4002 46.2899V25.7073C54.4048 25.3093 54.3284 24.9145 54.1755 24.547C54.0227 24.1795 53.7966 23.8469 53.5111 23.5696C53.2365 23.2804 52.9045 23.0519 52.5363 22.8987C52.1681 22.7456 51.772 22.6712 51.3733 22.6804H20.613C20.2149 22.6758 19.8202 22.7522 19.4526 22.9051C19.0851 23.058 18.7526 23.284 18.4752 23.5696C18.1902 23.8433 17.9643 24.1726 17.8114 24.537C17.6585 24.9014 17.5818 25.2932 17.5861 25.6884V46.2899C17.5818 46.6851 17.6585 47.0769 17.8114 47.4413C17.9643 47.8057 18.1902 48.1349 18.4752 48.4087C18.7526 48.6942 19.0851 48.9203 19.4526 49.0732C19.8202 49.226 20.2149 49.3025 20.613 49.2978H50.2383ZM22.4291 47.8601V30.9665L34.65 39.3849L22.4291 47.8601ZM49.1789 48.56H22.8263L35.3689 39.8011C35.5453 39.9682 35.7708 40.0743 36.0121 40.1038C36.237 40.0422 36.4487 39.9396 36.6364 39.8011L49.1789 48.56ZM35.9364 33.142L22.8263 23.4372H49.1221L35.9364 33.142ZM49.4437 47.8601L37.2228 39.3849L49.4437 30.9665V47.8601Z" fill="white"/>
<defs>
<linearGradient id="paint0_linear_472_6741" x1="-9.90358" y1="83.3709" x2="99.9297" y2="64.9252" gradientUnits="userSpaceOnUse">
<stop stop-color="#38BDF8"/>
<stop offset="0.519231" stop-color="#3B82F6"/>
<stop offset="0.714438" stop-color="#38BDF8"/>
</linearGradient>
<linearGradient id="paint1_linear_472_6741" x1="-9.90358" y1="83.3709" x2="99.9297" y2="64.9252" gradientUnits="userSpaceOnUse">
<stop stop-color="#38BDF8"/>
<stop offset="0.519231" stop-color="#3B82F6"/>
<stop offset="0.714438" stop-color="#38BDF8"/>
</linearGradient>
</defs>
</svg>
