<svg width="72" height="72" viewBox="0 0 72 72" fill="none" xmlns="http://www.w3.org/2000/svg">
<rect x="0.4" y="0.4" width="71.2" height="71.2" rx="35.6" fill="url(#paint0_linear_472_6734)"/>
<rect x="0.4" y="0.4" width="71.2" height="71.2" rx="35.6" stroke="url(#paint1_linear_472_6734)" stroke-width="0.8"/>
<path d="M36.1254 53.751C33.1147 53.7363 30.1566 52.9655 27.5265 51.5103L18 54L20.507 44.7385C18.8903 42.0408 18.025 38.9647 18 35.8255C18.01 32.2975 19.071 28.8513 21.0494 25.9209C23.0278 22.9906 25.8351 20.7072 29.1177 19.3582C32.4004 18.0093 36.0116 17.6552 39.4965 18.3405C42.9814 19.0258 46.1841 20.7199 48.7014 23.2094C51.2187 25.6989 52.9379 28.8725 53.6424 32.3305C54.347 35.7885 54.0055 39.3761 52.6608 42.6417C51.3162 45.9073 49.0285 48.7047 46.0861 50.6816C43.1436 52.6585 39.6779 53.7264 36.1254 53.751ZM36.1254 21.0618C33.4675 21.0921 30.8652 21.8212 28.5833 23.1749C26.3014 24.5287 24.4215 26.4587 23.135 28.7686C21.8485 31.0785 21.2013 33.6857 21.2593 36.3248C21.3173 38.9638 22.0784 41.5405 23.4652 43.7924L23.8162 44.365L22.312 49.8174L28.0279 48.2738L28.5794 48.5974C30.8597 49.9313 33.4539 50.6441 36.1003 50.6639C40.0896 50.6639 43.9156 49.09 46.7365 46.2886C49.5574 43.4872 51.1421 39.6877 51.1421 35.7259C51.1421 31.7641 49.5574 27.9646 46.7365 25.1632C43.9156 22.3618 40.0896 20.788 36.1003 20.788L36.1254 21.0618ZM44.8998 42.2737C44.5714 42.8176 44.1318 43.287 43.6092 43.6516C43.0867 44.0161 42.4929 44.2676 41.8663 44.3899C40.9301 44.5599 39.9662 44.5 39.0585 44.2157C38.2045 43.9505 37.3674 43.6346 36.5516 43.2696C33.4523 41.7252 30.8092 39.4091 28.8802 36.5475C27.832 35.2217 27.196 33.621 27.0502 31.9416C27.0352 31.244 27.1681 30.5511 27.4402 29.9077C27.7123 29.2644 28.1175 28.685 28.6295 28.2072C28.7804 28.0373 28.9654 27.9008 29.1727 27.8065C29.38 27.7121 29.6049 27.662 29.8329 27.6594H30.5348C30.8106 27.6594 31.1867 27.6594 31.5376 28.4312C31.8886 29.203 32.8162 31.5184 32.9415 31.7425C33.0031 31.8619 33.0353 31.9942 33.0353 32.1284C33.0353 32.2626 33.0031 32.3948 32.9415 32.5143C32.8307 32.7848 32.6785 33.0367 32.4903 33.2612C32.2646 33.535 32.014 33.8587 31.8134 34.0579C31.6128 34.257 31.3621 34.506 31.6128 34.9541C32.295 36.0974 33.1393 37.1371 34.1198 38.0413C35.1876 38.9783 36.4084 39.7276 37.7298 40.2571C38.1811 40.4812 38.4569 40.4563 38.7076 40.2571C38.9583 40.0579 39.8357 38.9625 40.1365 38.5143C40.4374 38.0662 40.7382 38.1409 41.1393 38.2903C41.5404 38.4396 43.7716 39.5102 44.2229 39.7343C44.6741 39.9583 44.9499 40.0579 45.0753 40.2571C45.184 40.9087 45.1236 41.5771 44.8998 42.199V42.2737Z" fill="white"/>
<defs>
<linearGradient id="paint0_linear_472_6734" x1="-9.90358" y1="83.3709" x2="99.9297" y2="64.9252" gradientUnits="userSpaceOnUse">
<stop stop-color="#38BDF8"/>
<stop offset="0.519231" stop-color="#3B82F6"/>
<stop offset="0.714438" stop-color="#38BDF8"/>
</linearGradient>
<linearGradient id="paint1_linear_472_6734" x1="-9.90358" y1="83.3709" x2="99.9297" y2="64.9252" gradientUnits="userSpaceOnUse">
<stop stop-color="#38BDF8"/>
<stop offset="0.519231" stop-color="#3B82F6"/>
<stop offset="0.714438" stop-color="#38BDF8"/>
</linearGradient>
</defs>
</svg>
