<svg width="48" height="48" viewBox="0 0 48 48" fill="none" xmlns="http://www.w3.org/2000/svg">
<path d="M2.23144 17.3558H18.1325C18.5342 17.3558 18.8598 17.0301 18.8598 16.6285V0.72729C18.8598 0.325681 18.5342 0 18.1325 0H2.23144C1.82954 0 1.50415 0.325681 1.50415 0.72729V16.6285C1.50415 17.0302 1.82954 17.3558 2.23144 17.3558Z" fill="#3B82F6"/>
<path d="M10.6962 27.8488C10.4124 27.5649 9.95162 27.5649 9.66783 27.8488L0.21306 37.3036C-0.0710199 37.5877 -0.0710199 38.0482 0.21306 38.3321L9.66783 47.7869C9.8098 47.9289 9.99599 47.9998 10.182 47.9998C10.3681 47.9998 10.5544 47.9289 10.6962 47.7869L20.151 38.3321C20.4351 38.048 20.4351 37.5875 20.151 37.3036L10.6962 27.8488Z" fill="#3B82F6"/>
<path d="M33.431 17.3348H42.5874C42.8472 17.3348 43.0872 17.1962 43.2173 16.9712L47.7953 9.0417C47.9252 8.81668 47.9252 8.53943 47.7953 8.31441L43.2173 0.384763C43.0874 0.15974 42.8472 0.0211182 42.5874 0.0211182H33.431C33.1711 0.0211182 32.9309 0.15974 32.8012 0.384763L28.2232 8.31441C28.0933 8.53943 28.0933 8.81668 28.2232 9.0417L32.8012 16.9712C32.9312 17.1962 33.1711 17.3348 33.431 17.3348Z" fill="#3B82F6"/>
<path d="M38.6471 28.5726C33.549 28.5726 29.4014 32.7201 29.4014 37.8181C29.4014 42.9161 33.549 47.0638 38.6471 47.0638C43.7453 47.0638 47.8929 42.9163 47.8929 37.8181C47.8927 32.7201 43.7451 28.5726 38.6471 28.5726Z" fill="#3B82F6"/>
<path d="M9.45466 18.3999C9.17349 18.3999 8.94556 18.6278 8.94556 18.909V25.6001C8.94556 25.8812 9.17349 26.1092 9.45466 26.1092H10.6183C10.8995 26.1092 11.1274 25.8812 11.1274 25.6001V18.909C11.1274 18.6278 10.8995 18.3999 10.6183 18.3999H9.45466Z" fill="#3B82F6"/>
<path d="M37.9197 18.6425C37.6386 18.6425 37.4106 18.8704 37.4106 19.1516V25.8426C37.4106 26.1238 37.6386 26.3517 37.9197 26.3517H39.0834C39.3646 26.3517 39.5925 26.1238 39.5925 25.8426V19.1516C39.5925 18.8704 39.3646 18.6425 39.0834 18.6425H37.9197Z" fill="#3B82F6"/>
<path d="M26.3099 7.75818H21.2308C20.9495 7.75818 20.7217 7.98611 20.7217 8.26728V9.43095C20.7217 9.71212 20.9495 9.94005 21.2308 9.94005H26.3099C26.5909 9.94005 26.819 9.71212 26.819 9.43095V8.26728C26.819 7.98611 26.5909 7.75818 26.3099 7.75818Z" fill="#3B82F6"/>
</svg>
