<svg width="48" height="35" viewBox="0 0 48 35" fill="none" xmlns="http://www.w3.org/2000/svg">
<path d="M47.8273 29.9558L43.5537 24.5815V1.98C43.5537 0.886688 42.6671 0 41.5738 0H6.42619C5.33287 0 4.44703 0.886688 4.44703 1.98V24.5814L0.172594 29.9558C0.0608437 30.0959 0 30.2693 0 30.4493V32.828C0 33.7009 0.707625 34.4076 1.57969 34.4076H46.4203C47.2924 34.4076 48 33.7009 48 32.828V30.4493C48 30.2693 47.9392 30.0959 47.8273 29.9558ZM7.23994 2.79375H40.76V21.7879H7.23994V2.79375ZM28.5114 32.529H19.4886V30.1404H28.5114V32.529Z" fill="#3B82F6"/>
</svg>
