<svg width="48" height="46" viewBox="0 0 48 46" fill="none" xmlns="http://www.w3.org/2000/svg">
<path d="M27.9385 41.5428C27.5618 41.6444 27.1773 41.735 26.7958 41.8134C25.7978 42.0168 25.1536 42.9908 25.3575 43.989C25.3689 44.046 25.3832 44.1002 25.3995 44.1547C25.6718 45.0569 26.5921 45.6197 27.5336 45.4276C27.9889 45.3344 28.4478 45.226 28.8977 45.1049C29.8816 44.8403 30.4642 43.828 30.1995 42.8441C29.9345 41.8589 28.9224 41.2779 27.9385 41.5428Z" fill="#3B82F6"/>
<path d="M15.0808 40.5157C14.7245 40.3572 14.3691 40.1856 14.0244 40.0053C13.1208 39.5342 12.007 39.8843 11.5358 40.7877C11.3033 41.232 11.2706 41.7279 11.405 42.1728C11.5437 42.6317 11.8594 43.0368 12.3174 43.2758C12.7289 43.4902 13.1519 43.6952 13.5763 43.8844C14.5062 44.2996 15.5972 43.8827 16.0127 42.9529C16.4282 42.0222 16.0108 40.932 15.0808 40.5157Z" fill="#3B82F6"/>
<path d="M21.4236 42.1374C21.0357 42.1062 20.6421 42.0622 20.2558 42.0079C19.247 41.8642 18.3136 42.5661 18.1703 43.5748C18.1314 43.849 18.1552 44.117 18.2301 44.3655C18.4312 45.0317 19.0032 45.5555 19.7378 45.6603C20.1975 45.7252 20.6653 45.7773 21.1276 45.8141C22.1434 45.8964 23.0328 45.1394 23.1145 44.1243C23.1961 43.1086 22.4396 42.2192 21.4236 42.1374Z" fill="#3B82F6"/>
<path d="M33.8798 38.7915C33.5593 39.012 33.2269 39.226 32.8923 39.428C32.155 39.8722 31.8403 40.7509 32.0776 41.5388C32.1213 41.6831 32.1837 41.8246 32.265 41.9601C32.7905 42.8326 33.9243 43.1128 34.7969 42.5876C35.1948 42.3476 35.59 42.0924 35.971 41.8304C36.8099 41.2528 37.0225 40.1043 36.4449 39.2654C35.8675 38.4258 34.7186 38.214 33.8798 38.7915Z" fill="#3B82F6"/>
<path d="M41.1307 33.8032C40.3045 33.2074 39.1516 33.3943 38.5558 34.2201C38.3282 34.536 38.0873 34.8493 37.8407 35.15C37.4361 35.6441 37.3311 36.2846 37.5022 36.8532C37.6046 37.1916 37.8049 37.5052 38.0988 37.7461C38.8868 38.3915 40.0489 38.2756 40.6943 37.4874C40.9888 37.1286 41.2762 36.7549 41.5474 36.3783C42.1434 35.552 41.9569 34.3995 41.1307 33.8032Z" fill="#3B82F6"/>
<path d="M43.7127 27.0845C42.735 26.7989 41.7108 27.3606 41.4256 28.3385C41.316 28.713 41.1939 29.0891 41.0631 29.4561C40.9244 29.8423 40.9223 30.245 41.0328 30.6097C41.1959 31.1509 41.6043 31.6097 42.1762 31.8146C43.1354 32.1585 44.191 31.6603 44.5355 30.7017C44.6919 30.2644 44.8372 29.8168 44.9667 29.3712C45.2518 28.3938 44.6904 27.3692 43.7127 27.0845Z" fill="#3B82F6"/>
<path d="M47.1736 15.0666L44.7495 15.8199C42.9098 10.1821 39.0363 5.54936 33.7935 2.7357C33.2657 2.45228 32.7304 2.19184 32.1885 1.95251C32.1845 1.95064 32.1814 1.94908 32.1778 1.94669C32.1551 1.93712 32.1313 1.92817 32.1092 1.9184C27.3293 -0.173128 22.0397 -0.569612 16.9691 0.80352C16.9293 0.81132 16.8894 0.818809 16.8501 0.829938C16.6808 0.876118 16.5099 0.926147 16.3413 0.976487C16.0645 1.06011 15.7861 1.15018 15.513 1.2439C15.4806 1.25502 15.4502 1.26886 15.4188 1.28134C10.8925 2.84928 7.03799 5.74012 4.2882 9.60261C4.27842 9.61592 4.26739 9.62736 4.25814 9.64057C3.98938 10.018 3.72904 10.4094 3.48316 10.8042C3.46777 10.8295 3.45498 10.8558 3.44031 10.8819C3.19506 11.2797 2.95937 11.6865 2.73617 12.1015C0.457116 16.3489 -0.412298 21.0945 0.180867 25.7822C0.18222 25.7929 0.183468 25.8029 0.184404 25.8135C0.18534 25.821 0.187004 25.8288 0.188772 25.8366C0.349987 27.0889 0.614794 28.3371 0.986628 29.57C1.96307 32.8073 3.59237 35.7182 5.82899 38.2223C6.50744 38.9818 7.6736 39.0473 8.43349 38.3689C9.19296 37.6902 9.25922 36.5238 8.58025 35.7645C7.46371 34.515 6.52929 33.1426 5.78135 31.664C5.77335 31.6458 5.76627 31.6272 5.75754 31.6097C5.58166 31.2609 5.41451 30.9033 5.25975 30.5454C5.25892 30.5426 5.25798 30.5409 5.25673 30.5386C4.97507 29.8799 4.72951 29.2017 4.51899 28.505C2.1015 20.4894 5.18455 12.1018 11.5825 7.41227C11.6771 7.34342 11.7717 7.27394 11.8673 7.20717C13.5098 6.04871 15.3624 5.1301 17.3899 4.51873C19.4304 3.90362 21.4938 3.64526 23.5147 3.7058C23.5474 3.70725 23.5791 3.70819 23.6115 3.70912C23.7348 3.71287 23.8578 3.71942 23.9805 3.72629C24.0301 3.72889 24.0795 3.73159 24.129 3.73471C30.4306 4.12891 36.2415 7.62882 39.5037 13.1273C39.5054 13.1304 39.5067 13.1339 39.5089 13.1371C39.5572 13.2187 39.6045 13.3002 39.6519 13.3828C39.6575 13.3921 39.6636 13.4003 39.669 13.4098C40.2932 14.5043 40.8184 15.6755 41.2268 16.915L38.8028 17.6686C38.1295 17.8778 38.0633 18.3622 38.6541 18.7451L43.9294 22.162C44.5208 22.5453 45.2262 22.3259 45.4959 21.6757L47.9059 15.8699C48.1752 15.2192 47.8464 14.8576 47.1736 15.0666Z" fill="#3B82F6"/>
<path d="M16.1513 22.9602C14.3736 24.2772 13.161 25.4196 12.5147 26.3873C11.869 27.3549 11.4817 28.388 11.3545 29.4864H22.4767V26.4646H16.6879C17.0278 26.1304 17.3235 25.8608 17.5754 25.6549C17.8274 25.4478 18.326 25.0873 19.0726 24.5713C20.3284 23.6855 21.1948 22.8723 21.6713 22.1318C22.1473 21.3919 22.3856 20.6151 22.3856 19.802C22.3856 19.0376 22.1779 18.3472 21.7623 17.731C21.3464 17.1153 20.7757 16.6585 20.0507 16.3612C19.3259 16.0642 18.3108 15.9152 17.006 15.9152C15.7565 15.9152 14.7783 16.0717 14.071 16.3847C13.3646 16.6971 12.8166 17.1459 12.4285 17.731C12.04 18.3172 11.7733 19.1317 11.6274 20.1749L15.341 20.4751C15.444 19.7233 15.646 19.1981 15.9461 18.901C16.2468 18.6036 16.633 18.4548 17.1069 18.4548C17.5618 18.4548 17.9396 18.5991 18.2398 18.8874C18.54 19.1751 18.6904 19.5228 18.6904 19.9296C18.6904 20.306 18.5387 20.7032 18.2351 21.1222C17.9317 21.5407 17.2369 22.1537 16.1513 22.9602Z" fill="#3B82F6"/>
<path d="M33.6627 29.4865V26.9925H35.3372V24.1158H33.6627V15.9153H30.4315L23.6782 23.9435V26.9925H30.4315V29.4865H33.6627ZM26.8635 24.1158L30.4315 19.9174V24.1158H26.8635Z" fill="#3B82F6"/>
</svg>
