<svg width="6" height="6" viewBox="0 0 6 6" fill="none" xmlns="http://www.w3.org/2000/svg">
<g clip-path="url(#clip0_95_1918)">
<path d="M6 3C6 1.34314 4.65686 0 3 0C1.34314 0 0 1.34314 0 3C0 4.49739 1.09706 5.7385 2.53125 5.96355V3.86719H1.76953V3H2.53125V2.33906C2.53125 1.58719 2.97913 1.17188 3.66439 1.17188C3.99262 1.17188 4.33594 1.23047 4.33594 1.23047V1.96875H3.95764C3.58497 1.96875 3.46875 2.2 3.46875 2.43725V3H4.30078L4.16777 3.86719H3.46875V5.96355C4.90294 5.7385 6 4.49739 6 3Z" fill="#1877F2"/>
<path d="M4.16777 3.86719L4.30078 3H3.46875V2.43725C3.46875 2.2 3.58497 1.96875 3.95764 1.96875H4.33594V1.23047C4.33594 1.23047 3.99262 1.17188 3.66439 1.17188C2.97913 1.17188 2.53125 1.58719 2.53125 2.33906V3H1.76953V3.86719H2.53125V5.96355C2.68399 5.98752 2.84053 6 3 6C3.15947 6 3.31601 5.98752 3.46875 5.96355V3.86719H4.16777Z" fill="white"/>
</g>
<defs>
<clipPath id="clip0_95_1918">
<rect width="6" height="6" fill="white"/>
</clipPath>
</defs>
</svg>
