<svg width="6" height="6" viewBox="0 0 6 6" fill="none" xmlns="http://www.w3.org/2000/svg">
<g clip-path="url(#clip0_95_1925)">
<path d="M3.39429 2.99584L3.97922 3.66444L4.76583 4.16705L4.90265 3.00005L4.76583 1.85938L3.96415 2.30091L3.39429 2.99584Z" fill="#00832D"/>
<path d="M0 4.05846V5.05291C0 5.27998 0.184313 5.46434 0.411422 5.46434H1.40588L1.6118 4.71295L1.40588 4.05846L0.723609 3.85254L0 4.05846Z" fill="#0066DA"/>
<path d="M1.40588 0.527344L0 1.93322L0.723656 2.13865L1.40588 1.93322L1.60805 1.28763L1.40588 0.527344Z" fill="#E94235"/>
<path d="M0 4.05879H1.40585V1.93311H0V4.05879Z" fill="#2684FC"/>
<path d="M5.66397 1.12262L4.76587 1.8594V4.16706L5.66767 4.9067C5.80267 5.01245 6.00016 4.91607 6.00016 4.74446V1.28157C6.00016 1.10806 5.79796 1.01216 5.66395 1.12264" fill="#00AC47"/>
<path d="M3.39415 2.99585V4.05846H1.40576V5.46433H4.35429C4.5814 5.46433 4.76569 5.27997 4.76569 5.05291V4.16707L3.39415 2.99585Z" fill="#00AC47"/>
<path d="M4.35429 0.527344H1.40576V1.93322H3.39415V2.99583L4.76571 1.85934V0.938789C4.76571 0.71168 4.5814 0.527367 4.35429 0.527367" fill="#FFBA00"/>
</g>
<defs>
<clipPath id="clip0_95_1925">
<rect width="6" height="6" fill="white"/>
</clipPath>
</defs>
</svg>
