<svg width="8" height="3" viewBox="0 0 8 3" fill="none" xmlns="http://www.w3.org/2000/svg">
<g clip-path="url(#clip0_95_1940)">
<path d="M3.63798 1.85043C3.63798 1.97424 3.71689 2.05724 3.82846 2.05724C3.94002 2.05724 4.01893 1.97424 4.01893 1.85043V0.804174H4.12778C4.22574 0.804174 4.31009 0.757916 4.31009 0.640909C4.31009 0.522542 4.22574 0.477644 4.12778 0.477644H4.01893V0.255875C4.01893 0.132065 3.94002 0.0490723 3.82846 0.0490723C3.71689 0.0490723 3.63798 0.132065 3.63798 0.255875V0.477644H3.55363C3.45839 0.477644 3.38628 0.547031 3.38628 0.640909C3.38628 0.741589 3.45023 0.804174 3.55363 0.804174H3.63798V1.85043ZM1.04887 0.251793C1.04887 0.122542 0.964512 0.0504328 0.850227 0.0504328C0.735941 0.0504328 0.651587 0.122542 0.651587 0.251793V1.49941C0.651587 1.58241 0.651587 1.7171 0.503288 1.7171C0.38356 1.7171 0.291043 1.62186 0.18492 1.62186C0.0978456 1.62186 0.0366211 1.7103 0.0366211 1.77968C0.0366211 2.00417 0.341383 2.07492 0.525056 2.07492C0.765873 2.07492 1.05023 1.96064 1.05023 1.52662V0.251793H1.04887ZM1.15499 1.52934C1.15499 1.85996 1.38084 2.0722 1.78356 2.0722C2.18628 2.0722 2.41213 1.85996 2.41213 1.52934V0.857236C2.41213 0.733426 2.33322 0.650433 2.22166 0.650433C2.11009 0.650433 2.03118 0.733426 2.03118 0.857236V1.52118C2.03118 1.67628 1.91145 1.762 1.78492 1.762C1.65703 1.762 1.53866 1.67628 1.53866 1.52118V0.857236C1.53866 0.733426 1.45975 0.650433 1.34819 0.650433C1.23662 0.650433 1.15771 0.733426 1.15771 0.857236V1.52934H1.15499ZM3.48152 0.904855C3.48152 0.990569 3.41485 1.07084 3.32506 1.07084C3.25295 1.07084 3.10737 0.961997 2.98356 0.961997C2.91417 0.961997 2.85431 0.99329 2.85431 1.0654C2.85431 1.23819 3.51689 1.21234 3.51689 1.63683C3.51689 1.88445 3.30193 2.07492 2.97404 2.07492C2.75907 2.07492 2.4407 1.95519 2.4407 1.78785C2.4407 1.7307 2.49921 1.62186 2.60533 1.62186C2.75363 1.62186 2.82029 1.74839 2.99989 1.74839C3.11689 1.74839 3.15091 1.71166 3.15091 1.64227C3.15091 1.4722 2.48832 1.49805 2.48832 1.07084C2.48832 0.812338 2.70329 0.636827 3.00533 0.636827C3.19308 0.635467 3.48152 0.721181 3.48152 0.904855Z" fill="#1274C0"/>
<path d="M7.60142 1.8354C7.60142 1.95921 7.68169 2.0422 7.79461 2.0422C7.90754 2.0422 7.98781 1.95921 7.98781 1.8354V0.242203C7.98781 0.118394 7.90754 0.0354004 7.79461 0.0354004C7.68169 0.0354004 7.60142 0.118394 7.60142 0.242203V1.8354ZM5.57693 0.242203C5.57693 0.118394 5.49665 0.0354004 5.38373 0.0354004C5.2708 0.0354004 5.19053 0.118394 5.19053 0.242203V0.748326C5.08849 0.662611 4.95788 0.619074 4.82318 0.619074C4.40822 0.619074 4.20142 0.994584 4.20142 1.35649C4.20142 1.70751 4.44767 2.05717 4.83679 2.05717C4.96876 2.05717 5.11842 2.00003 5.19053 1.88574C5.21502 1.9837 5.27625 2.04084 5.38373 2.04084C5.49665 2.04084 5.57693 1.95785 5.57693 1.83404V0.242203ZM5.19053 1.32792C5.19053 1.50887 5.09938 1.71567 4.88713 1.71567C4.68577 1.71567 4.58645 1.51431 4.58645 1.34016C4.58645 1.16465 4.68577 0.96057 4.88713 0.96057C5.09393 0.96057 5.19053 1.14696 5.19053 1.32792ZM5.68305 1.8354C5.68305 1.95921 5.76332 2.0422 5.87625 2.0422C5.98917 2.0422 6.06944 1.95921 6.06944 1.8354V0.842203C6.06944 0.718394 5.98917 0.6354 5.87625 0.6354C5.76332 0.6354 5.68305 0.718394 5.68305 0.842203V1.8354ZM5.87625 0.0762167C5.7606 0.0762167 5.65856 0.174176 5.65856 0.280298C5.65856 0.394584 5.7606 0.495264 5.87625 0.495264C5.99733 0.495264 6.09393 0.397305 6.09393 0.280298C6.09393 0.172815 5.99189 0.0762167 5.87625 0.0762167ZM7.49529 0.877577C7.49529 0.782339 7.49529 0.63404 7.31026 0.63404C7.21638 0.63404 7.13611 0.699346 7.12523 0.789142C7.03951 0.672135 6.89938 0.619074 6.75788 0.619074C6.40414 0.619074 6.11978 0.931999 6.11978 1.34016C6.11978 1.75921 6.39597 2.05717 6.75788 2.05717C6.90482 2.05717 7.02591 1.9973 7.12523 1.88302C7.15244 1.98098 7.19733 2.04084 7.31026 2.04084C7.49529 2.04084 7.49529 1.89254 7.49529 1.79731V0.877577ZM6.50618 1.34152C6.50618 1.16329 6.60006 0.961931 6.8123 0.961931C7.01638 0.961931 7.11026 1.16329 7.11026 1.34152C7.11026 1.51975 7.01366 1.71703 6.8123 1.71703C6.60278 1.71567 6.50618 1.51975 6.50618 1.34152Z" fill="#FF6C00"/>
</g>
<defs>
<clipPath id="clip0_95_1940">
<rect width="8" height="2.09524" fill="white"/>
</clipPath>
</defs>
</svg>
