<svg width="6" height="6" viewBox="0 0 6 6" fill="none" xmlns="http://www.w3.org/2000/svg">
<g clip-path="url(#clip0_95_1922)">
<path d="M0.966064 1.04248H5.00847V5.05939H0.966064V1.04248Z" fill="white"/>
<path d="M1.2 4.8V2.286H1.968V4.8H1.2ZM1.992 1.59C1.998 1.806 1.836 1.98 1.578 1.98C1.338 1.98 1.182 1.806 1.182 1.59C1.182 1.368 1.344 1.2 1.59 1.2C1.836 1.2 1.992 1.368 1.992 1.59ZM4.008 4.8V3.408C4.008 3.084 3.9 2.862 3.618 2.862C3.408 2.862 3.282 3.012 3.222 3.156C3.204 3.21 3.198 3.282 3.198 3.354V4.8H2.43V3.09C2.43 2.778 2.418 2.514 2.412 2.286H3.078L3.114 2.64H3.126C3.228 2.472 3.48 2.232 3.894 2.232C4.398 2.232 4.782 2.574 4.782 3.318V4.8H4.008ZM6 0.528C6 0.24 5.76 0 5.472 0H0.528C0.24 0 0 0.24 0 0.528V5.472C0 5.76 0.24 6 0.528 6H5.472C5.76 6 6 5.76 6 5.472V0.528Z" fill="#1D87BD"/>
</g>
<defs>
<clipPath id="clip0_95_1922">
<rect width="6" height="6" fill="white"/>
</clipPath>
</defs>
</svg>
