<svg width="375" height="332" viewBox="0 0 375 332" fill="none" xmlns="http://www.w3.org/2000/svg">

<style>
  @keyframes pair-zoom {
    0%, 100% { opacity: 0.6; transform: scale(0.6); }
    50% { opacity: 1; transform: scale(1.3); }
  }
  .strand-part {
    animation: pair-zoom 2s ease-in-out infinite;
  }
</style>

<style id="dynamic-dna">
  #left-impulse, #right-impulse {
    stroke-dasharray: 100 4000;
    stroke-dashoffset: 4100;
    filter: drop-shadow(0 0 10px #ffffff) drop-shadow(0 0 5px #38BDF8);
    animation: nerve-impulse 4s linear infinite;
  }
  #right-impulse {
    animation-delay: 2s; /* Offsets the right impulse so they alternate */
  }
  @keyframes nerve-impulse {
    0% { stroke-dashoffset: -100; } /* Starts at the very top (end of path) */
    100% { stroke-dashoffset: 4100; } /* Travels down to the bottom (start of path) */
  }
</style>




<g class="strand-part" style="transform-origin: 12.761015px 317.14300000000003px; animation-delay: 0s;">
<g >
  <circle cx="21.2898" cy="326.954" r="3" transform="rotate(-131 21.2898 326.954)" fill="#38BDF8" />
</g>
<g >
  <rect x="19.4417" y="326.352" width="22.6667" height="2" transform="rotate(-131 19.4417 326.352)" fill="#38BDF8" />
</g>
<g >
  <circle cx="4.23223" cy="307.332" r="3" transform="rotate(-131 4.23223 307.332)" fill="#38BDF8" />
</g>
</g>
<g class="strand-part" style="transform-origin: 21.062800000000003px 309.92650000000003px; animation-delay: 0.2s;">
<g >
  <circle cx="26.9673" cy="316.719" r="3" transform="rotate(-131 26.9673 316.719)" fill="#3A9FF7" />
</g>
<g >
  <rect x="24.7693" y="315.714" width="13.6" height="2" transform="rotate(-131 24.7693 315.714)" fill="#3A9FF7" />
</g>
<g >
  <circle cx="15.1583" cy="303.134" r="3" transform="rotate(-131 15.1583 303.134)" fill="#3A9FF7" />
</g>
</g>
<g class="strand-part" style="transform-origin: 29.3648px 302.7095px; animation-delay: 0.4s;">
<g >
  <circle cx="32.6451" cy="306.483" r="3" transform="rotate(-131 32.6451 306.483)" fill="#3B82F6" />
</g>
<g >
  <rect x="30.0972" y="305.076" width="4.53333" height="2" transform="rotate(-131 30.0972 305.076)" fill="#3B82F6" />
</g>
<g >
  <circle cx="26.0845" cy="298.936" r="3" transform="rotate(-131 26.0845 298.936)" fill="#3B82F6" />
</g>
</g>
<g class="strand-part" style="transform-origin: 37.6666px 295.4925px; animation-delay: 0.6000000000000001s;">
<g >
  <circle cx="39.6351" cy="297.757" r="3" transform="rotate(-131 39.6351 297.757)" fill="#38BDF8" />
</g>
<g >
  <rect x="36.9121" y="296.149" width="0.00113333" height="2" transform="rotate(-131 36.9121 296.149)" fill="#38BDF8" />
</g>
<g >
  <circle cx="35.6981" cy="293.228" r="3" transform="rotate(-131 35.6981 293.228)" fill="#38BDF8" />
</g>
</g>
<g class="strand-part" style="transform-origin: 45.9683px 288.2765px; animation-delay: 0.8s;">
<g >
  <circle cx="49.2486" cy="292.05" r="3" transform="rotate(-131 49.2486 292.05)" fill="#3B82F6" />
</g>
<g >
  <rect x="46.7007" y="290.643" width="4.53333" height="2" transform="rotate(-131 46.7007 290.643)" fill="#3B82F6" />
</g>
<g >
  <circle cx="42.688" cy="284.503" r="3" transform="rotate(-131 42.688 284.503)" fill="#3B82F6" />
</g>
</g>
<g class="strand-part" style="transform-origin: 54.27005px 281.05949999999996px; animation-delay: 0s;">
<g >
  <circle cx="60.1746" cy="287.852" r="3" transform="rotate(-131 60.1746 287.852)" fill="#3A9FF7" />
</g>
<g >
  <rect x="57.9766" y="286.848" width="13.6" height="2" transform="rotate(-131 57.9766 286.848)" fill="#3A9FF7" />
</g>
<g >
  <circle cx="48.3655" cy="274.267" r="3" transform="rotate(-131 48.3655 274.267)" fill="#3A9FF7" />
</g>
</g>
<g class="strand-part" style="transform-origin: 62.571799999999996px 273.84299999999996px; animation-delay: 0.2s;">
<g >
  <circle cx="71.1006" cy="283.654" r="3" transform="rotate(-131 71.1006 283.654)" fill="#38BDF8" />
</g>
<g >
  <rect x="69.2524" y="283.052" width="22.6667" height="2" transform="rotate(-131 69.2524 283.052)" fill="#38BDF8" />
</g>
<g >
  <circle cx="54.043" cy="264.032" r="3" transform="rotate(-131 54.043 264.032)" fill="#38BDF8" />
</g>
</g>
<g class="strand-part" style="transform-origin: 70.87355px 266.62649999999996px; animation-delay: 0.4s;">
<g >
  <circle cx="76.7781" cy="273.419" r="3" transform="rotate(-131 76.7781 273.419)" fill="#3A9FF7" />
</g>
<g >
  <rect x="74.5801" y="272.414" width="13.6" height="2" transform="rotate(-131 74.5801 272.414)" fill="#3A9FF7" />
</g>
<g >
  <circle cx="64.969" cy="259.834" r="3" transform="rotate(-131 64.969 259.834)" fill="#3A9FF7" />
</g>
</g>
<g class="strand-part" style="transform-origin: 79.1756px 259.4095px; animation-delay: 0.6000000000000001s;">
<g >
  <circle cx="82.4559" cy="263.183" r="3" transform="rotate(-131 82.4559 263.183)" fill="#3B82F6" />
</g>
<g >
  <rect x="79.908" y="261.776" width="4.53333" height="2" transform="rotate(-131 79.908 261.776)" fill="#3B82F6" />
</g>
<g >
  <circle cx="75.8953" cy="255.636" r="3" transform="rotate(-131 75.8953 255.636)" fill="#3B82F6" />
</g>
</g>
<g class="strand-part" style="transform-origin: 87.47735px 252.19299999999998px; animation-delay: 0.8s;">
<g >
  <circle cx="89.4459" cy="254.458" r="3" transform="rotate(-131 89.4459 254.458)" fill="#38BDF8" />
</g>
<g >
  <rect x="86.7229" y="252.849" width="0.00113333" height="2" transform="rotate(-131 86.7229 252.849)" fill="#38BDF8" />
</g>
<g >
  <circle cx="85.5088" cy="249.928" r="3" transform="rotate(-131 85.5088 249.928)" fill="#38BDF8" />
</g>
</g>
<g class="strand-part" style="transform-origin: 95.7791px 244.9765px; animation-delay: 0s;">
<g >
  <circle cx="99.0594" cy="248.75" r="3" transform="rotate(-131 99.0594 248.75)" fill="#3B82F6" />
</g>
<g >
  <rect x="96.5115" y="247.343" width="4.53333" height="2" transform="rotate(-131 96.5115 247.343)" fill="#3B82F6" />
</g>
<g >
  <circle cx="92.4988" cy="241.203" r="3" transform="rotate(-131 92.4988 241.203)" fill="#3B82F6" />
</g>
</g>
<g class="strand-part" style="transform-origin: 104.08064999999999px 237.7595px; animation-delay: 0.2s;">
<g >
  <circle cx="109.985" cy="244.552" r="3" transform="rotate(-131 109.985 244.552)" fill="#3A9FF7" />
</g>
<g >
  <rect x="107.787" y="243.548" width="13.6" height="2" transform="rotate(-131 107.787 243.548)" fill="#3A9FF7" />
</g>
<g >
  <circle cx="98.1763" cy="230.967" r="3" transform="rotate(-131 98.1763 230.967)" fill="#3A9FF7" />
</g>
</g>
<g class="strand-part" style="transform-origin: 112.3825px 230.543px; animation-delay: 0.4s;">
<g >
  <circle cx="120.911" cy="240.354" r="3" transform="rotate(-131 120.911 240.354)" fill="#38BDF8" />
</g>
<g >
  <rect x="119.063" y="239.752" width="22.6667" height="2" transform="rotate(-131 119.063 239.752)" fill="#38BDF8" />
</g>
<g >
  <circle cx="103.854" cy="220.732" r="3" transform="rotate(-131 103.854 220.732)" fill="#38BDF8" />
</g>
</g>
<g class="strand-part" style="transform-origin: 120.6845px 223.3265px; animation-delay: 0.6000000000000001s;">
<g >
  <circle cx="126.589" cy="230.119" r="3" transform="rotate(-131 126.589 230.119)" fill="#3A9FF7" />
</g>
<g >
  <rect x="124.391" y="229.115" width="13.6" height="2" transform="rotate(-131 124.391 229.115)" fill="#3A9FF7" />
</g>
<g >
  <circle cx="114.78" cy="216.534" r="3" transform="rotate(-131 114.78 216.534)" fill="#3A9FF7" />
</g>
</g>
<g class="strand-part" style="transform-origin: 128.9865px 216.10950000000003px; animation-delay: 0.8s;">
<g >
  <circle cx="132.267" cy="219.883" r="3" transform="rotate(-131 132.267 219.883)" fill="#3B82F6" />
</g>
<g >
  <rect x="129.719" y="218.477" width="4.53333" height="2" transform="rotate(-131 129.719 218.477)" fill="#3B82F6" />
</g>
<g >
  <circle cx="125.706" cy="212.336" r="3" transform="rotate(-131 125.706 212.336)" fill="#3B82F6" />
</g>
</g>
<g class="strand-part" style="transform-origin: 137.2885px 208.8935px; animation-delay: 0s;">
<g >
  <circle cx="139.257" cy="211.158" r="3" transform="rotate(-131 139.257 211.158)" fill="#38BDF8" />
</g>
<g >
  <rect x="136.534" y="209.549" width="0.00113333" height="2" transform="rotate(-131 136.534 209.549)" fill="#38BDF8" />
</g>
<g >
  <circle cx="135.32" cy="206.629" r="3" transform="rotate(-131 135.32 206.629)" fill="#38BDF8" />
</g>
</g>
<g class="strand-part" style="transform-origin: 145.59px 201.67649999999998px; animation-delay: 0.2s;">
<g >
  <circle cx="148.87" cy="205.45" r="3" transform="rotate(-131 148.87 205.45)" fill="#3B82F6" />
</g>
<g >
  <rect x="146.322" y="204.043" width="4.53333" height="2" transform="rotate(-131 146.322 204.043)" fill="#3B82F6" />
</g>
<g >
  <circle cx="142.31" cy="197.903" r="3" transform="rotate(-131 142.31 197.903)" fill="#3B82F6" />
</g>
</g>
<g class="strand-part" style="transform-origin: 153.8915px 194.4595px; animation-delay: 0.4s;">
<g >
  <circle cx="159.796" cy="201.252" r="3" transform="rotate(-131 159.796 201.252)" fill="#3A9FF7" />
</g>
<g >
  <rect x="157.598" y="200.248" width="13.6" height="2" transform="rotate(-131 157.598 200.248)" fill="#3A9FF7" />
</g>
<g >
  <circle cx="147.987" cy="187.667" r="3" transform="rotate(-131 147.987 187.667)" fill="#3A9FF7" />
</g>
</g>
<g class="strand-part" style="transform-origin: 162.1935px 187.243px; animation-delay: 0.6000000000000001s;">
<g >
  <circle cx="170.722" cy="197.054" r="3" transform="rotate(-131 170.722 197.054)" fill="#38BDF8" />
</g>
<g >
  <rect x="168.874" y="196.453" width="22.6667" height="2" transform="rotate(-131 168.874 196.453)" fill="#38BDF8" />
</g>
<g >
  <circle cx="153.665" cy="177.432" r="3" transform="rotate(-131 153.665 177.432)" fill="#38BDF8" />
</g>
</g>
<g class="strand-part" style="transform-origin: 170.4955px 180.0265px; animation-delay: 0.8s;">
<g >
  <circle cx="176.4" cy="186.819" r="3" transform="rotate(-131 176.4 186.819)" fill="#3A9FF7" />
</g>
<g >
  <rect x="174.202" y="185.815" width="13.6" height="2" transform="rotate(-131 174.202 185.815)" fill="#3A9FF7" />
</g>
<g >
  <circle cx="164.591" cy="173.234" r="3" transform="rotate(-131 164.591 173.234)" fill="#3A9FF7" />
</g>
</g>
<g class="strand-part" style="transform-origin: 178.797px 172.8095px; animation-delay: 0s;">
<g >
  <circle cx="182.077" cy="176.583" r="3" transform="rotate(-131 182.077 176.583)" fill="#3B82F6" />
</g>
<g >
  <rect x="179.53" y="175.177" width="4.53333" height="2" transform="rotate(-131 179.53 175.177)" fill="#3B82F6" />
</g>
<g >
  <circle cx="175.517" cy="169.036" r="3" transform="rotate(-131 175.517 169.036)" fill="#3B82F6" />
</g>
</g>
<g class="strand-part" style="transform-origin: 187.0985px 165.5935px; animation-delay: 0.2s;">
<g >
  <circle cx="189.067" cy="167.858" r="3" transform="rotate(-131 189.067 167.858)" fill="#38BDF8" />
</g>
<g >
  <rect x="186.344" y="166.25" width="0.00113333" height="2" transform="rotate(-131 186.344 166.25)" fill="#38BDF8" />
</g>
<g >
  <circle cx="185.13" cy="163.329" r="3" transform="rotate(-131 185.13 163.329)" fill="#38BDF8" />
</g>
</g>
<g class="strand-part" style="transform-origin: 195.40050000000002px 158.37650000000002px; animation-delay: 0.4s;">
<g >
  <circle cx="198.681" cy="162.15" r="3" transform="rotate(-131 198.681 162.15)" fill="#3B82F6" />
</g>
<g >
  <rect x="196.133" y="160.743" width="4.53333" height="2" transform="rotate(-131 196.133 160.743)" fill="#3B82F6" />
</g>
<g >
  <circle cx="192.12" cy="154.603" r="3" transform="rotate(-131 192.12 154.603)" fill="#3B82F6" />
</g>
</g>
<g class="strand-part" style="transform-origin: 203.7025px 151.16px; animation-delay: 0.6000000000000001s;">
<g >
  <circle cx="209.607" cy="157.952" r="3" transform="rotate(-131 209.607 157.952)" fill="#3A9FF7" />
</g>
<g >
  <rect x="207.409" y="156.948" width="13.6" height="2" transform="rotate(-131 207.409 156.948)" fill="#3A9FF7" />
</g>
<g >
  <circle cx="197.798" cy="144.368" r="3" transform="rotate(-131 197.798 144.368)" fill="#3A9FF7" />
</g>
</g>
<g class="strand-part" style="transform-origin: 212.0045px 143.9435px; animation-delay: 0.8s;">
<g >
  <circle cx="220.533" cy="153.755" r="3" transform="rotate(-131 220.533 153.755)" fill="#38BDF8" />
</g>
<g >
  <rect x="218.685" y="153.153" width="22.6667" height="2" transform="rotate(-131 218.685 153.153)" fill="#38BDF8" />
</g>
<g >
  <circle cx="203.476" cy="134.132" r="3" transform="rotate(-131 203.476 134.132)" fill="#38BDF8" />
</g>
</g>
<g class="strand-part" style="transform-origin: 220.3065px 136.7265px; animation-delay: 0s;">
<g >
  <circle cx="226.211" cy="143.519" r="3" transform="rotate(-131 226.211 143.519)" fill="#3A9FF7" />
</g>
<g >
  <rect x="224.013" y="142.515" width="13.6" height="2" transform="rotate(-131 224.013 142.515)" fill="#3A9FF7" />
</g>
<g >
  <circle cx="214.402" cy="129.934" r="3" transform="rotate(-131 214.402 129.934)" fill="#3A9FF7" />
</g>
</g>
<g class="strand-part" style="transform-origin: 228.608px 129.5095px; animation-delay: 0.2s;">
<g >
  <circle cx="231.888" cy="133.283" r="3" transform="rotate(-131 231.888 133.283)" fill="#3B82F6" />
</g>
<g >
  <rect x="229.34" y="131.877" width="4.53333" height="2" transform="rotate(-131 229.34 131.877)" fill="#3B82F6" />
</g>
<g >
  <circle cx="225.328" cy="125.736" r="3" transform="rotate(-131 225.328 125.736)" fill="#3B82F6" />
</g>
</g>
<g class="strand-part" style="transform-origin: 236.90949999999998px 122.2935px; animation-delay: 0.4s;">
<g >
  <circle cx="238.878" cy="124.558" r="3" transform="rotate(-131 238.878 124.558)" fill="#38BDF8" />
</g>
<g >
  <rect x="236.156" y="122.95" width="0.00113333" height="2" transform="rotate(-131 236.156 122.95)" fill="#38BDF8" />
</g>
<g >
  <circle cx="234.941" cy="120.029" r="3" transform="rotate(-131 234.941 120.029)" fill="#38BDF8" />
</g>
</g>
<g class="strand-part" style="transform-origin: 245.2115px 115.0765px; animation-delay: 0.6000000000000001s;">
<g >
  <circle cx="248.492" cy="118.85" r="3" transform="rotate(-131 248.492 118.85)" fill="#3B82F6" />
</g>
<g >
  <rect x="245.944" y="117.443" width="4.53333" height="2" transform="rotate(-131 245.944 117.443)" fill="#3B82F6" />
</g>
<g >
  <circle cx="241.931" cy="111.303" r="3" transform="rotate(-131 241.931 111.303)" fill="#3B82F6" />
</g>
</g>
<g class="strand-part" style="transform-origin: 253.51350000000002px 107.86px; animation-delay: 0.8s;">
<g >
  <circle cx="259.418" cy="114.652" r="3" transform="rotate(-131 259.418 114.652)" fill="#3A9FF7" />
</g>
<g >
  <rect x="257.22" y="113.648" width="13.6" height="2" transform="rotate(-131 257.22 113.648)" fill="#3A9FF7" />
</g>
<g >
  <circle cx="247.609" cy="101.068" r="3" transform="rotate(-131 247.609 101.068)" fill="#3A9FF7" />
</g>
</g>
<g class="strand-part" style="transform-origin: 261.815px 100.64355px; animation-delay: 0s;">
<g >
  <circle cx="270.344" cy="110.455" r="3" transform="rotate(-131 270.344 110.455)" fill="#38BDF8" />
</g>
<g >
  <rect x="268.496" y="109.853" width="22.6667" height="2" transform="rotate(-131 268.496 109.853)" fill="#38BDF8" />
</g>
<g >
  <circle cx="253.286" cy="90.8321" r="3" transform="rotate(-131 253.286 90.8321)" fill="#38BDF8" />
</g>
</g>
<g class="strand-part" style="transform-origin: 270.11699999999996px 93.4267px; animation-delay: 0.2s;">
<g >
  <circle cx="276.022" cy="100.219" r="3" transform="rotate(-131 276.022 100.219)" fill="#3A9FF7" />
</g>
<g >
  <rect x="273.823" y="99.2148" width="13.6" height="2" transform="rotate(-131 273.823 99.2148)" fill="#3A9FF7" />
</g>
<g >
  <circle cx="264.212" cy="86.6344" r="3" transform="rotate(-131 264.212 86.6344)" fill="#3A9FF7" />
</g>
</g>
<g class="strand-part" style="transform-origin: 278.4185px 86.21005px; animation-delay: 0.4s;">
<g >
  <circle cx="281.699" cy="89.9836" r="3" transform="rotate(-131 281.699 89.9836)" fill="#3B82F6" />
</g>
<g >
  <rect x="279.151" y="88.5769" width="4.53333" height="2" transform="rotate(-131 279.151 88.5769)" fill="#3B82F6" />
</g>
<g >
  <circle cx="275.138" cy="82.4365" r="3" transform="rotate(-131 275.138 82.4365)" fill="#3B82F6" />
</g>
</g>
<g class="strand-part" style="transform-origin: 286.7205px 78.99340000000001px; animation-delay: 0.6000000000000001s;">
<g >
  <circle cx="288.689" cy="81.2579" r="3" transform="rotate(-131 288.689 81.2579)" fill="#38BDF8" />
</g>
<g >
  <rect x="285.966" y="79.6498" width="0.00113333" height="2" transform="rotate(-131 285.966 79.6498)" fill="#38BDF8" />
</g>
<g >
  <circle cx="284.752" cy="76.7289" r="3" transform="rotate(-131 284.752 76.7289)" fill="#38BDF8" />
</g>
</g>
<g class="strand-part" style="transform-origin: 295.02250000000004px 71.77674999999999px; animation-delay: 0.8s;">
<g >
  <circle cx="298.303" cy="75.5503" r="3" transform="rotate(-131 298.303 75.5503)" fill="#3B82F6" />
</g>
<g >
  <rect x="295.755" y="74.1436" width="4.53333" height="2" transform="rotate(-131 295.755 74.1436)" fill="#3B82F6" />
</g>
<g >
  <circle cx="291.742" cy="68.0032" r="3" transform="rotate(-131 291.742 68.0032)" fill="#3B82F6" />
</g>
</g>
<g class="strand-part" style="transform-origin: 303.3245px 64.56015000000001px; animation-delay: 0s;">
<g >
  <circle cx="309.229" cy="71.3525" r="3" transform="rotate(-131 309.229 71.3525)" fill="#3A9FF7" />
</g>
<g >
  <rect x="307.031" y="70.3483" width="13.6" height="2" transform="rotate(-131 307.031 70.3483)" fill="#3A9FF7" />
</g>
<g >
  <circle cx="297.42" cy="57.7678" r="3" transform="rotate(-131 297.42 57.7678)" fill="#3A9FF7" />
</g>
</g>
<g class="strand-part" style="transform-origin: 311.626px 57.343450000000004px; animation-delay: 0.2s;">
<g >
  <circle cx="320.155" cy="67.1547" r="3" transform="rotate(-131 320.155 67.1547)" fill="#38BDF8" />
</g>
<g >
  <rect x="318.307" y="66.5529" width="22.6667" height="2" transform="rotate(-131 318.307 66.5529)" fill="#38BDF8" />
</g>
<g >
  <circle cx="303.097" cy="47.5322" r="3" transform="rotate(-131 303.097 47.5322)" fill="#38BDF8" />
</g>
</g>
<g class="strand-part" style="transform-origin: 319.9275px 50.12685px; animation-delay: 0.4s;">
<g >
  <circle cx="325.832" cy="56.9192" r="3" transform="rotate(-131 325.832 56.9192)" fill="#3A9FF7" />
</g>
<g >
  <rect x="323.634" y="55.9149" width="13.6" height="2" transform="rotate(-131 323.634 55.9149)" fill="#3A9FF7" />
</g>
<g >
  <circle cx="314.023" cy="43.3345" r="3" transform="rotate(-131 314.023 43.3345)" fill="#3A9FF7" />
</g>
</g>
<g class="strand-part" style="transform-origin: 328.23px 42.91015px; animation-delay: 0.6000000000000001s;">
<g >
  <circle cx="331.51" cy="46.6837" r="3" transform="rotate(-131 331.51 46.6837)" fill="#3B82F6" />
</g>
<g >
  <rect x="328.962" y="45.277" width="4.53333" height="2" transform="rotate(-131 328.962 45.277)" fill="#3B82F6" />
</g>
<g >
  <circle cx="324.95" cy="39.1366" r="3" transform="rotate(-131 324.95 39.1366)" fill="#3B82F6" />
</g>
</g>
<g class="strand-part" style="transform-origin: 336.5315px 35.69345px; animation-delay: 0.8s;">
<g >
  <circle cx="338.5" cy="37.958" r="3" transform="rotate(-131 338.5 37.958)" fill="#38BDF8" />
</g>
<g >
  <rect x="335.777" y="36.3499" width="0.00113333" height="2" transform="rotate(-131 335.777 36.3499)" fill="#38BDF8" />
</g>
<g >
  <circle cx="334.563" cy="33.4289" r="3" transform="rotate(-131 334.563 33.4289)" fill="#38BDF8" />
</g>
</g>
<g class="strand-part" style="transform-origin: 344.83349999999996px 28.476799999999997px; animation-delay: 0s;">
<g >
  <circle cx="348.114" cy="32.2504" r="3" transform="rotate(-131 348.114 32.2504)" fill="#3B82F6" />
</g>
<g >
  <rect x="345.566" y="30.8436" width="4.53333" height="2" transform="rotate(-131 345.566 30.8436)" fill="#3B82F6" />
</g>
<g >
  <circle cx="341.553" cy="24.7032" r="3" transform="rotate(-131 341.553 24.7032)" fill="#3B82F6" />
</g>
</g>
<g class="strand-part" style="transform-origin: 353.1355px 21.26025px; animation-delay: 0.2s;">
<g >
  <circle cx="359.04" cy="28.0526" r="3" transform="rotate(-131 359.04 28.0526)" fill="#3A9FF7" />
</g>
<g >
  <rect x="356.842" y="27.0483" width="13.6" height="2" transform="rotate(-131 356.842 27.0483)" fill="#3A9FF7" />
</g>
<g >
  <circle cx="347.231" cy="14.4679" r="3" transform="rotate(-131 347.231 14.4679)" fill="#3A9FF7" />
</g>
</g>
<g class="strand-part" style="transform-origin: 361.437px 14.043495px; animation-delay: 0.4s;">
<g >
  <circle cx="369.966" cy="23.8547" r="3" transform="rotate(-131 369.966 23.8547)" fill="#38BDF8" />
</g>
<g >
  <rect x="368.117" y="23.2529" width="22.6667" height="2" transform="rotate(-131 368.117 23.2529)" fill="#38BDF8" />
</g>
<g >
  <circle cx="352.908" cy="4.23229" r="3" transform="rotate(-131 352.908 4.23229)" fill="#38BDF8" />
</g>
</g>

<!-- Base backbones (dim, always visible) -->
<path id="left-backbone" d="M 21.2898 326.954 Q 26.9673 316.719 29.8062 311.601 Q 32.6451 306.483 36.140100000000004 302.12 Q 39.6351 297.757 44.44185 294.9035 Q 49.2486 292.05 54.711600000000004 289.951 Q 60.1746 287.852 65.63759999999999 285.753 Q 71.1006 283.654 73.93934999999999 278.5365 Q 76.7781 273.419 79.61699999999999 268.301 Q 82.4559 263.183 85.95089999999999 258.8205 Q 89.4459 254.458 94.25264999999999 251.60399999999998 Q 99.0594 248.75 104.5222 246.651 Q 109.985 244.552 115.44800000000001 242.453 Q 120.911 240.354 123.75 235.2365 Q 126.589 230.119 129.428 225.001 Q 132.267 219.883 135.762 215.5205 Q 139.257 211.158 144.0635 208.30399999999997 Q 148.87 205.45 154.333 203.351 Q 159.796 201.252 165.25900000000001 199.15300000000002 Q 170.722 197.054 173.561 191.9365 Q 176.4 186.819 179.2385 181.701 Q 182.077 176.583 185.572 172.22050000000002 Q 189.067 167.858 193.87400000000002 165.00400000000002 Q 198.681 162.15 204.144 160.051 Q 209.607 157.952 215.07 155.8535 Q 220.533 153.755 223.372 148.637 Q 226.211 143.519 229.04950000000002 138.401 Q 231.888 133.283 235.38299999999998 128.9205 Q 238.878 124.558 243.685 121.70400000000001 Q 248.492 118.85 253.95499999999998 116.751 Q 259.418 114.652 264.881 112.5535 Q 270.344 110.455 273.183 105.33699999999999 Q 276.022 100.219 278.8605 95.1013 Q 281.699 89.9836 285.194 85.62075 Q 288.689 81.2579 293.496 78.4041 Q 298.303 75.5503 303.76599999999996 73.4514 Q 309.229 71.3525 314.692 69.2536 Q 320.155 67.1547 322.9935 62.036950000000004 Q 325.832 56.9192 328.671 51.80145 Q 331.51 46.6837 335.005 42.32085 Q 338.5 37.958 343.307 35.1042 Q 348.114 32.2504 353.577 30.1515 Q 359.04 28.0526 364.50300000000004 25.953650000000003 L 369.966 23.8547" fill="none" stroke="#38BDF8" stroke-width="2.5" opacity="0.4" stroke-linecap="round" />
<path id="right-backbone" d="M 4.23223 307.332 Q 15.1583 303.134 20.6214 301.03499999999997 Q 26.0845 298.936 30.891299999999998 296.082 Q 35.6981 293.228 39.19305 288.8655 Q 42.688 284.503 45.52675 279.385 Q 48.3655 274.267 51.20425 269.1495 Q 54.043 264.032 59.506 261.933 Q 64.969 259.834 70.43215000000001 257.735 Q 75.8953 255.636 80.70205 252.78199999999998 Q 85.5088 249.928 89.0038 245.5655 Q 92.4988 241.203 95.33755 236.085 Q 98.1763 230.967 101.01515 225.8495 Q 103.854 220.732 109.31700000000001 218.63299999999998 Q 114.78 216.534 120.243 214.435 Q 125.706 212.336 130.513 209.48250000000002 Q 135.32 206.629 138.815 202.266 Q 142.31 197.903 145.1485 192.785 Q 147.987 187.667 150.826 182.5495 Q 153.665 177.432 159.128 175.333 Q 164.591 173.234 170.054 171.135 Q 175.517 169.036 180.3235 166.1825 Q 185.13 163.329 188.625 158.966 Q 192.12 154.603 194.959 149.4855 Q 197.798 144.368 200.637 139.25 Q 203.476 134.132 208.939 132.03300000000002 Q 214.402 129.934 219.865 127.83500000000001 Q 225.328 125.736 230.1345 122.8825 Q 234.941 120.029 238.436 115.666 Q 241.931 111.303 244.77 106.18549999999999 Q 247.609 101.068 250.4475 95.95005 Q 253.286 90.8321 258.749 88.73325 Q 264.212 86.6344 269.67499999999995 84.53545 Q 275.138 82.4365 279.945 79.58269999999999 Q 284.752 76.7289 288.247 72.36605 Q 291.742 68.0032 294.581 62.88550000000001 Q 297.42 57.7678 300.2585 52.650000000000006 Q 303.097 47.5322 308.56 45.433350000000004 Q 314.023 43.3345 319.4865 41.23555 Q 324.95 39.1366 329.75649999999996 36.28275 Q 334.563 33.4289 338.058 29.066049999999997 Q 341.553 24.7032 344.392 19.585549999999998 Q 347.231 14.4679 350.0695 9.350095 L 352.908 4.23229" fill="none" stroke="#3A9FF7" stroke-width="2.5" opacity="0.4" stroke-linecap="round" />

<!-- Nerve impulses (bright, glowing, traveling) -->
<path id="left-impulse" d="M 21.2898 326.954 Q 26.9673 316.719 29.8062 311.601 Q 32.6451 306.483 36.140100000000004 302.12 Q 39.6351 297.757 44.44185 294.9035 Q 49.2486 292.05 54.711600000000004 289.951 Q 60.1746 287.852 65.63759999999999 285.753 Q 71.1006 283.654 73.93934999999999 278.5365 Q 76.7781 273.419 79.61699999999999 268.301 Q 82.4559 263.183 85.95089999999999 258.8205 Q 89.4459 254.458 94.25264999999999 251.60399999999998 Q 99.0594 248.75 104.5222 246.651 Q 109.985 244.552 115.44800000000001 242.453 Q 120.911 240.354 123.75 235.2365 Q 126.589 230.119 129.428 225.001 Q 132.267 219.883 135.762 215.5205 Q 139.257 211.158 144.0635 208.30399999999997 Q 148.87 205.45 154.333 203.351 Q 159.796 201.252 165.25900000000001 199.15300000000002 Q 170.722 197.054 173.561 191.9365 Q 176.4 186.819 179.2385 181.701 Q 182.077 176.583 185.572 172.22050000000002 Q 189.067 167.858 193.87400000000002 165.00400000000002 Q 198.681 162.15 204.144 160.051 Q 209.607 157.952 215.07 155.8535 Q 220.533 153.755 223.372 148.637 Q 226.211 143.519 229.04950000000002 138.401 Q 231.888 133.283 235.38299999999998 128.9205 Q 238.878 124.558 243.685 121.70400000000001 Q 248.492 118.85 253.95499999999998 116.751 Q 259.418 114.652 264.881 112.5535 Q 270.344 110.455 273.183 105.33699999999999 Q 276.022 100.219 278.8605 95.1013 Q 281.699 89.9836 285.194 85.62075 Q 288.689 81.2579 293.496 78.4041 Q 298.303 75.5503 303.76599999999996 73.4514 Q 309.229 71.3525 314.692 69.2536 Q 320.155 67.1547 322.9935 62.036950000000004 Q 325.832 56.9192 328.671 51.80145 Q 331.51 46.6837 335.005 42.32085 Q 338.5 37.958 343.307 35.1042 Q 348.114 32.2504 353.577 30.1515 Q 359.04 28.0526 364.50300000000004 25.953650000000003 L 369.966 23.8547" fill="none" stroke="#ffffff" stroke-width="3" stroke-linecap="round" />
<path id="right-impulse" d="M 4.23223 307.332 Q 15.1583 303.134 20.6214 301.03499999999997 Q 26.0845 298.936 30.891299999999998 296.082 Q 35.6981 293.228 39.19305 288.8655 Q 42.688 284.503 45.52675 279.385 Q 48.3655 274.267 51.20425 269.1495 Q 54.043 264.032 59.506 261.933 Q 64.969 259.834 70.43215000000001 257.735 Q 75.8953 255.636 80.70205 252.78199999999998 Q 85.5088 249.928 89.0038 245.5655 Q 92.4988 241.203 95.33755 236.085 Q 98.1763 230.967 101.01515 225.8495 Q 103.854 220.732 109.31700000000001 218.63299999999998 Q 114.78 216.534 120.243 214.435 Q 125.706 212.336 130.513 209.48250000000002 Q 135.32 206.629 138.815 202.266 Q 142.31 197.903 145.1485 192.785 Q 147.987 187.667 150.826 182.5495 Q 153.665 177.432 159.128 175.333 Q 164.591 173.234 170.054 171.135 Q 175.517 169.036 180.3235 166.1825 Q 185.13 163.329 188.625 158.966 Q 192.12 154.603 194.959 149.4855 Q 197.798 144.368 200.637 139.25 Q 203.476 134.132 208.939 132.03300000000002 Q 214.402 129.934 219.865 127.83500000000001 Q 225.328 125.736 230.1345 122.8825 Q 234.941 120.029 238.436 115.666 Q 241.931 111.303 244.77 106.18549999999999 Q 247.609 101.068 250.4475 95.95005 Q 253.286 90.8321 258.749 88.73325 Q 264.212 86.6344 269.67499999999995 84.53545 Q 275.138 82.4365 279.945 79.58269999999999 Q 284.752 76.7289 288.247 72.36605 Q 291.742 68.0032 294.581 62.88550000000001 Q 297.42 57.7678 300.2585 52.650000000000006 Q 303.097 47.5322 308.56 45.433350000000004 Q 314.023 43.3345 319.4865 41.23555 Q 324.95 39.1366 329.75649999999996 36.28275 Q 334.563 33.4289 338.058 29.066049999999997 Q 341.553 24.7032 344.392 19.585549999999998 Q 347.231 14.4679 350.0695 9.350095 L 352.908 4.23229" fill="none" stroke="#ffffff" stroke-width="3" stroke-linecap="round" />

</svg>